<svg xmlns="http://www.w3.org/2000/svg" width="100" height="100"><defs><linearGradient id="a" x1="84.179%" x2="33.179%" y1="0%" y2="100%"><stop offset="0%" stop-color="#44D1FF"/><stop offset="100%" stop-color="#50E3C2"/></linearGradient><linearGradient id="b" x1="100%" x2="6.34%" y1="-18.254%" y2="120.106%"><stop offset="0%" stop-color="#44D1FF"/><stop offset="100%" stop-color="#50E3C2"/></linearGradient></defs><g fill="none" fill-rule="evenodd"><rect width="98" height="98" x="1" y="1" stroke="url(#a)" stroke-width="2" rx="49"/><path fill="url(#b)" fill-rule="nonzero" d="M60.174 37.87v-3.846l-11.829-.027c-2.35 0-4.262-1.878-4.262-4.204v-3.42h-3.604v3.987c0 4.145 3.425 7.51 7.655 7.51h12.04zm2.107 0h4.729v2.1h-4.73v1.17h-2.106v-1.17h-12.04c-5.388 0-9.762-4.3-9.762-9.61v-3.988h-1.281v-2.1h10.727v2.1H46.19v3.421c0 1.16.962 2.104 2.158 2.104l11.826.027v-1.33h2.107v1.335l4.728.01-.005 2.1-4.723-.01v3.842zM39.41 82h-2.107v-1.318c0-4.542 7.001-7.64 13.122-7.64 6.12 0 13.122 3.098 13.122 7.64V82H61.44v-1.318c0-2.916-5.929-5.54-11.014-5.54-5.085 0-11.015 2.624-11.015 5.54V82zm11.015-10.813c-3.72 0-6.417-2.634-6.417-6.322v-2.636c0-3.688 2.697-6.323 6.417-6.323 3.72 0 6.417 2.635 6.417 6.323v2.636c0 3.688-2.697 6.322-6.417 6.322zm0-2.1c2.565 0 4.31-1.704 4.31-4.222v-2.636c0-2.519-1.745-4.223-4.31-4.223-2.566 0-4.31 1.704-4.31 4.223v2.636c0 2.518 1.744 4.222 4.31 4.222zM44.56 47.462H31.653c-2.8 0-5.076-2.237-5.076-5.005V24.004c0-2.767 2.276-5.004 5.076-5.004H71.88c2.8 0 5.077 2.237 5.077 5.004v18.453c0 2.768-2.276 5.005-5.077 5.005H56.292l-5.866 7.207-5.866-7.207zm5.866 3.873l4.861-5.973H71.88c1.644 0 2.97-1.304 2.97-2.905V24.004c0-1.6-1.326-2.904-2.97-2.904H31.653c-1.643 0-2.969 1.303-2.969 2.904v18.453c0 1.601 1.326 2.905 2.97 2.905h13.91l4.862 5.973zM79.63 79.983l-1.583 1.387c-1.816-2.06-6.58-3.593-10.19-3.593-.739 0-1.603.076-2.511.224l-.34-2.073a18.118 18.118 0 0 1 2.852-.25c4.156 0 9.487 1.715 11.772 4.305zm-10.431-6.16c-3.72 0-6.418-2.634-6.418-6.322v-2.636c0-3.688 2.698-6.322 6.418-6.322s6.417 2.634 6.417 6.322V67.5c0 3.688-2.697 6.322-6.417 6.322zm0-2.1c2.565 0 4.31-1.703 4.31-4.222v-2.636c0-2.519-1.745-4.222-4.31-4.222-2.566 0-4.31 1.703-4.31 4.222V67.5c0 2.519 1.744 4.222 4.31 4.222zM22.804 81.37l-1.582-1.387c2.285-2.59 7.616-4.306 11.772-4.306.858 0 1.835.086 2.851.251l-.339 2.073a16.034 16.034 0 0 0-2.512-.224c-3.608 0-8.373 1.534-10.19 3.593zm8.85-7.547c-3.72 0-6.418-2.634-6.418-6.322v-2.636c0-3.688 2.697-6.322 6.417-6.322 3.72 0 6.417 2.634 6.417 6.322V67.5c0 3.688-2.697 6.322-6.417 6.322zm0-2.1c2.565 0 4.31-1.703 4.31-4.222v-2.636c0-2.519-1.745-4.222-4.31-4.222-2.567 0-4.31 1.703-4.31 4.222V67.5c0 2.519 1.743 4.222 4.31 4.222z"/></g></svg>