<svg xmlns="http://www.w3.org/2000/svg" width="100" height="100"><defs><linearGradient id="a" x1="84.179%" x2="33.179%" y1="0%" y2="100%"><stop offset="0%" stop-color="#44D1FF"/><stop offset="100%" stop-color="#50E3C2"/></linearGradient><linearGradient id="b" x1="100%" x2="6.34%" y1="-18.254%" y2="120.106%"><stop offset="0%" stop-color="#44D1FF"/><stop offset="100%" stop-color="#50E3C2"/></linearGradient></defs><g fill="none" fill-rule="evenodd"><rect width="98" height="98" x="1" y="1" stroke="url(#a)" stroke-width="2" rx="49"/><path fill="url(#b)" fill-rule="nonzero" d="M31.369 38.268l3.653 1.212L50.9 55.282l-1.462 1.466L33.906 41.29l-3.803-1.262-8.194-10.872 5.001-4.977 10.92 8.15 1.267 3.785 15.561 15.487-1.462 1.465-15.908-15.831-1.217-3.636-8.967-6.692-2.456 2.444 6.72 8.917zm25.487-11.962l-1.758 1.749c-2.85 2.836-3.103 6.416-1.095 10.608l.317.662-4.21 4.19-1.462-1.466 3.18-3.165c-2.016-4.661-1.57-8.933 1.808-12.295l1.758-1.748c3.219-3.205 8.531-3.625 13.019-1.493l1.327.63-6.876 6.843 3.806 3.787 6.875-6.841.63 1.315c2.143 4.468 1.721 9.76-1.5 12.967l-.863.859-.896.89c-3.376 3.361-7.667 3.804-12.35 1.795l-2.859 2.846-1.462-1.466 3.883-3.864.659.313c4.214 2.001 7.817 1.748 10.669-1.091l.893-.888.864-.86c2.229-2.219 2.768-5.842 1.653-9.22l-6.195 6.165-6.741-6.707 6.193-6.163c-3.396-1.108-7.038-.571-9.267 1.648zM39.735 52.021l1.462 1.466-17.4 17.316a2.452 2.452 0 0 0 0 3.482 2.49 2.49 0 0 0 3.51 0l17.4-17.316 1.461 1.465-17.4 17.317a4.563 4.563 0 0 1-6.433 0 4.52 4.52 0 0 1 0-6.413l17.4-17.317zM79 66.36C79 74.446 72.414 81 64.293 81c-8.122 0-14.707-6.554-14.707-14.64s6.585-14.64 14.707-14.64C72.414 51.72 79 58.274 79 66.36zm-2.071 0c0-6.942-5.657-12.571-12.636-12.571-6.98 0-12.636 5.629-12.636 12.57 0 6.943 5.657 12.572 12.636 12.572 6.979 0 12.636-5.63 12.636-12.571zm-6.027 2.847l-1.086 1.762-6.559-4.031v-9.236h2.072v8.08l5.573 3.425z"/></g></svg>