<svg xmlns="http://www.w3.org/2000/svg" width="100" height="100"><defs><linearGradient id="a" x1="84.179%" x2="33.179%" y1="0%" y2="100%"><stop offset="0%" stop-color="#44D1FF"/><stop offset="100%" stop-color="#50E3C2"/></linearGradient><linearGradient id="b" x1="100%" x2="6.34%" y1="-18.254%" y2="120.106%"><stop offset="0%" stop-color="#44D1FF"/><stop offset="100%" stop-color="#50E3C2"/></linearGradient></defs><g fill="none" fill-rule="evenodd"><rect width="98" height="98" x="1" y="1" stroke="url(#a)" stroke-width="2" rx="49"/><path fill="url(#b)" fill-rule="nonzero" d="M22.105 70.647H20V27.592c0-4.02 3.153-7.382 7.346-7.382.58 0 1.052.472 1.052 1.055V64.29c0 .583-.471 1.055-1.052 1.055-2.994 0-5.24 2.41-5.24 5.302zm0-5.219a7.22 7.22 0 0 1 4.188-2.12V22.422c-2.456.484-4.188 2.637-4.188 5.171v37.836zm31.465-8.94v6.327h-5.035v5.483h18.033v-11.81h-3.982v-2.11h9.016V34.975H53.57V47.84h-2.105V34.975H34.69v25.73h16.774v-9.069h2.105v2.742h3.981v2.11h-3.98zm-7.14 6.327H32.586v-29.95h41.121v23.622h-5.034v13.92H46.43v-7.592zm-24.325 7.803c0 2.866 2.386 5.273 5.268 5.273h50.522V28.647h-50.55v-2.109h51.602c.582 0 1.053.472 1.053 1.055v49.352c0 .583-.471 1.055-1.053 1.055H27.373c-4.031 0-7.345-3.326-7.373-7.331v-.022c0-2.014.79-3.869 2.105-5.219v5.19zm43.616-27.416l-3.248-3.242 1.486-1.494 5.801 5.79-5.8 5.79-1.487-1.493 3.248-3.242H55.637V43.2h10.084zm-21.52-2.283v10.102h-2.105V40.92l-3.236 3.254-1.492-1.489 5.78-5.811 5.78 5.811-1.49 1.489-3.237-3.254z"/></g></svg>