<svg xmlns="http://www.w3.org/2000/svg" width="242" height="75"><g fill="#FFF" fill-rule="evenodd"><path d="M95.472 63.632c.77 0 1.466.174 2.09.523a3.74 3.74 0 0 1 1.467 1.474c.353.634.53 1.357.53 2.168 0 .811-.177 1.534-.53 2.169a3.79 3.79 0 0 1-1.467 1.482c-.624.353-1.32.53-2.09.53-.686 0-1.303-.146-1.849-.437a3.378 3.378 0 0 1-1.318-1.263V71.9h-1.06V60.325h1.107v4.93a3.418 3.418 0 0 1 1.318-1.21 3.88 3.88 0 0 1 1.802-.413zm-.078 7.363a3.1 3.1 0 0 0 1.56-.398 2.81 2.81 0 0 0 1.1-1.13c.265-.49.398-1.046.398-1.67 0-.624-.133-1.18-.398-1.669a2.81 2.81 0 0 0-1.1-1.131 3.109 3.109 0 0 0-1.56-.398 3.1 3.1 0 0 0-1.568.398 2.825 2.825 0 0 0-1.092 1.131c-.265.489-.398 1.045-.398 1.67 0 .623.133 1.18.398 1.668.265.49.63.866 1.092 1.131a3.09 3.09 0 0 0 1.568.398zm13.998-7.3l-4.102 9.188c-.333.77-.718 1.315-1.155 1.638-.437.322-.962.483-1.575.483a3.21 3.21 0 0 1-1.108-.187 2.4 2.4 0 0 1-.89-.561l.516-.827c.416.416.915.624 1.497.624.375 0 .694-.104.96-.312.265-.208.512-.562.74-1.061l.36-.796-3.667-8.19h1.155l3.089 6.974 3.088-6.974h1.092zm7.702-2.715h1.154V71.9h-1.154V60.98zm9.568 2.652c1.03 0 1.848.299 2.457.897.608.598.912 1.469.912 2.613V71.9h-1.107v-4.649c0-.853-.214-1.503-.64-1.95-.426-.447-1.035-.67-1.825-.67-.884 0-1.584.262-2.098.787-.515.525-.773 1.25-.773 2.176V71.9h-1.107v-8.206h1.06v1.514c.302-.5.72-.887 1.256-1.163.536-.275 1.157-.413 1.865-.413zm11.611 7.769a2.1 2.1 0 0 1-.772.429 3.11 3.11 0 0 1-.96.148c-.769 0-1.362-.208-1.778-.624-.416-.416-.624-1.004-.624-1.763v-4.96h-1.466v-.937h1.466V61.9h1.108v1.794h2.496v.936h-2.496v4.899c0 .489.122.86.366 1.115.245.255.596.382 1.053.382.23 0 .45-.036.663-.109.214-.073.398-.177.554-.312l.39.796zm9.771-3.26h-6.864c.062.852.39 1.541.983 2.066.593.526 1.341.788 2.246.788.51 0 .978-.09 1.404-.273a3.07 3.07 0 0 0 1.108-.803l.624.717c-.364.437-.82.77-1.365.999a4.616 4.616 0 0 1-1.802.343c-.842 0-1.589-.18-2.239-.538a3.88 3.88 0 0 1-1.52-1.49c-.365-.634-.547-1.352-.547-2.153 0-.8.175-1.518.523-2.153a3.784 3.784 0 0 1 1.435-1.482c.609-.353 1.292-.53 2.052-.53.759 0 1.44.177 2.043.53a3.76 3.76 0 0 1 1.42 1.475c.343.629.515 1.349.515 2.16l-.016.343zm-3.962-3.557c-.79 0-1.454.252-1.99.756-.535.505-.84 1.162-.912 1.974h5.819c-.073-.812-.377-1.47-.913-1.974-.535-.504-1.204-.756-2.004-.756zm7.15-4.26h1.107V71.9h-1.107V60.325zm5.106 0h1.108V71.9h-1.108V60.325zm12.251 7.816h-6.864c.063.853.39 1.542.983 2.067.593.526 1.342.788 2.246.788.51 0 .978-.09 1.404-.273a3.07 3.07 0 0 0 1.108-.803l.624.717c-.364.437-.819.77-1.365.999a4.616 4.616 0 0 1-1.802.343c-.842 0-1.588-.18-2.238-.538a3.88 3.88 0 0 1-1.521-1.49c-.364-.634-.546-1.352-.546-2.153 0-.8.174-1.518.522-2.153a3.784 3.784 0 0 1 1.435-1.482c.609-.353 1.293-.53 2.052-.53.759 0 1.44.177 2.043.53a3.76 3.76 0 0 1 1.42 1.475c.343.629.515 1.349.515 2.16l-.016.343zm-3.962-3.556c-.79 0-1.454.252-1.99.756-.535.505-.839 1.162-.912 1.974h5.819c-.073-.812-.377-1.47-.913-1.974-.535-.504-1.203-.756-2.004-.756zm10.55 7.394c-.81 0-1.536-.177-2.176-.53a3.84 3.84 0 0 1-1.505-1.49c-.364-.64-.546-1.36-.546-2.16 0-.802.182-1.52.546-2.154a3.854 3.854 0 0 1 1.505-1.482c.64-.353 1.365-.53 2.177-.53.707 0 1.339.138 1.895.413.556.276.996.679 1.318 1.21l-.827.561a2.587 2.587 0 0 0-1.03-.913 3.055 3.055 0 0 0-1.356-.304c-.593 0-1.126.133-1.6.398a2.795 2.795 0 0 0-1.107 1.131c-.265.489-.398 1.045-.398 1.67 0 .634.133 1.193.398 1.676.265.484.634.858 1.108 1.123a3.214 3.214 0 0 0 1.599.398c.488 0 .94-.099 1.357-.296.416-.198.759-.5 1.03-.905l.826.562c-.322.53-.764.933-1.326 1.209-.561.275-1.19.413-1.887.413zm10.707-.577a2.1 2.1 0 0 1-.772.429 3.11 3.11 0 0 1-.96.148c-.769 0-1.362-.208-1.778-.624-.416-.416-.624-1.004-.624-1.763v-4.96h-1.466v-.937h1.466V61.9h1.108v1.794h2.496v.936h-2.496v4.899c0 .489.122.86.367 1.115.244.255.595.382 1.053.382.228 0 .45-.036.663-.109.213-.073.397-.177.553-.312l.39.796zm5.122.577a6.3 6.3 0 0 1-1.91-.289c-.609-.192-1.085-.434-1.428-.725l.5-.874c.342.27.774.492 1.294.663.52.172 1.06.258 1.622.258.75 0 1.303-.117 1.662-.351.359-.234.538-.564.538-.99 0-.302-.099-.539-.296-.71a1.969 1.969 0 0 0-.75-.39 10.681 10.681 0 0 0-1.2-.258 13.771 13.771 0 0 1-1.607-.382 2.361 2.361 0 0 1-1.038-.663c-.286-.312-.429-.744-.429-1.295 0-.686.286-1.248.858-1.685.572-.437 1.368-.655 2.387-.655.53 0 1.061.07 1.591.21.53.141.968.326 1.31.554l-.483.89c-.676-.468-1.482-.702-2.418-.702-.707 0-1.24.124-1.599.374s-.538.577-.538.983c0 .312.101.561.304.749.203.187.455.325.757.413.301.088.717.18 1.248.273.655.125 1.18.25 1.575.374.396.125.734.338 1.014.64.281.302.422.718.422 1.248 0 .718-.3 1.287-.897 1.708-.598.421-1.428.632-2.489.632zm9.693 0c-.79 0-1.503-.18-2.137-.538a3.925 3.925 0 0 1-1.498-1.49c-.364-.634-.546-1.352-.546-2.153 0-.8.182-1.518.546-2.153a3.87 3.87 0 0 1 1.498-1.482c.634-.353 1.347-.53 2.137-.53s1.503.177 2.137.53a3.815 3.815 0 0 1 1.49 1.482c.359.635.538 1.352.538 2.153 0 .801-.179 1.519-.538 2.153a3.87 3.87 0 0 1-1.49 1.49c-.634.359-1.346.538-2.137.538zm0-.983c.583 0 1.105-.132 1.568-.398a2.773 2.773 0 0 0 1.084-1.13c.26-.49.39-1.046.39-1.67 0-.624-.13-1.18-.39-1.669a2.773 2.773 0 0 0-1.084-1.131 3.096 3.096 0 0 0-1.568-.398 3.1 3.1 0 0 0-1.568.398 2.825 2.825 0 0 0-1.092 1.131c-.265.489-.397 1.045-.397 1.67 0 .623.132 1.18.397 1.668.266.49.63.866 1.092 1.131a3.09 3.09 0 0 0 1.568.398zm10.052-9.812c-.479 0-.84.13-1.084.39-.245.26-.367.645-.367 1.154v.967h2.527v.936h-2.496v7.27h-1.107v-7.27h-1.467v-.936h1.467V62.68c0-.748.215-1.341.647-1.778.432-.437 1.043-.655 1.833-.655.312 0 .614.044.905.132.291.089.535.216.733.383l-.374.826c-.323-.27-.728-.405-1.217-.405zm7.805 10.218a2.1 2.1 0 0 1-.772.429 3.11 3.11 0 0 1-.96.148c-.77 0-1.362-.208-1.778-.624-.416-.416-.624-1.004-.624-1.763v-4.96h-1.466v-.937h1.466V61.9h1.108v1.794h2.496v.936h-2.496v4.899c0 .489.122.86.366 1.115.245.255.596.382 1.053.382.229 0 .45-.036.663-.109.213-.073.398-.177.554-.312l.39.796z" opacity=".8"/><path fill-rule="nonzero" d="M73.181 4.129L23.332 29.113a1.3 1.3 0 1 1-1.164-2.325L73.899.861a1.3 1.3 0 0 1 1.882 1.162v51.855a1.3 1.3 0 0 1-1.3 1.3H53.305a1.3 1.3 0 0 1 0-2.6h19.876V4.128zm-19.65 68.677a1.294 1.294 0 0 1-.881.344H1.449c-.511.073-.963-.181-1.225-.566a1.414 1.414 0 0 1-.02-.029c-.262-.406-.316-.948-.014-1.402L21.354 27.75c.605-1.24 2.469-.81 2.469.57v24.259h13.143l14.715-7.351L73.09 2.14a1.3 1.3 0 0 1 2.328 1.157L53.95 46.504v22.59l19.588-16.132a1.3 1.3 0 1 1 1.653 2.007l-21.613 17.8a1.322 1.322 0 0 1-.047.037zM31.76 55.178h-8.57L10.576 65.76l21.185-10.583zm-10.538-1.744V33.951L5.145 66.924l16.078-13.49zM51.35 70.55V48.299L6.808 70.55H51.35z"/><path d="M101.66 36.66l-8.164 8.372V54.6h-2.652V18.2h2.652v23.4l22.724-23.4h3.224l-16.016 16.536L120.536 54.6h-3.224L101.66 36.66zm48.256 7.696h-21.112L124.176 54.6h-2.86l16.744-36.4h2.652l16.744 36.4h-2.86l-4.68-10.244zm-.988-2.236l-9.568-21.008-9.516 21.008h19.084zM164.06 18.2h14.404c3.779 0 7.133.78 10.062 2.34 2.93 1.56 5.209 3.718 6.838 6.474 1.63 2.756 2.444 5.885 2.444 9.386 0 3.501-.815 6.63-2.444 9.386-1.63 2.756-3.909 4.914-6.838 6.474-2.93 1.56-6.283 2.34-10.062 2.34H164.06V18.2zm14.196 34.008c3.363 0 6.327-.667 8.892-2.002 2.565-1.335 4.541-3.198 5.928-5.59 1.387-2.392 2.08-5.13 2.08-8.216 0-3.085-.693-5.824-2.08-8.216-1.387-2.392-3.363-4.255-5.928-5.59s-5.53-2.002-8.892-2.002h-11.544v31.616h11.544zm44.2 2.652c-3.57 0-6.795-.806-9.672-2.418-2.877-1.612-5.14-3.822-6.786-6.63-1.647-2.808-2.47-5.945-2.47-9.412 0-3.467.823-6.604 2.47-9.412 1.647-2.808 3.909-5.018 6.786-6.63s6.101-2.418 9.672-2.418c3.57 0 6.795.797 9.672 2.392 2.877 1.595 5.14 3.796 6.786 6.604 1.647 2.808 2.47 5.963 2.47 9.464 0 3.501-.823 6.656-2.47 9.464-1.647 2.808-3.909 5.01-6.786 6.604-2.877 1.595-6.101 2.392-9.672 2.392zm0-2.444c3.05 0 5.807-.693 8.268-2.08a15.322 15.322 0 0 0 5.824-5.746c1.421-2.444 2.132-5.174 2.132-8.19 0-3.016-.71-5.746-2.132-8.19a15.322 15.322 0 0 0-5.824-5.746c-2.461-1.387-5.217-2.08-8.268-2.08-3.05 0-5.815.693-8.294 2.08a15.27 15.27 0 0 0-5.85 5.746c-1.421 2.444-2.132 5.174-2.132 8.19 0 3.016.71 5.746 2.132 8.19a15.27 15.27 0 0 0 5.85 5.746c2.479 1.387 5.243 2.08 8.294 2.08z"/></g></svg>