<svg xmlns="http://www.w3.org/2000/svg" width="100" height="100"><defs><linearGradient id="a" x1="84.179%" x2="33.179%" y1="0%" y2="100%"><stop offset="0%" stop-color="#44D1FF"/><stop offset="100%" stop-color="#50E3C2"/></linearGradient><linearGradient id="b" x1="100%" x2="6.34%" y1="-18.254%" y2="120.106%"><stop offset="0%" stop-color="#44D1FF"/><stop offset="100%" stop-color="#50E3C2"/></linearGradient></defs><g fill="none" fill-rule="evenodd"><rect width="98" height="98" x="1" y="1" stroke="url(#a)" stroke-width="2" rx="49"/><path fill="url(#b)" fill-rule="nonzero" d="M80.621 43.276c2.587 0 4.379 3.168 4.379 6.896 0 3.728-1.792 6.897-4.379 6.897h-16.92v12.138c0 .461-.287.874-.718 1.034l-31.13 11.586a1.102 1.102 0 0 1-1.486-1.034v-48c0-.461.287-.874.718-1.034l31.13-11.586a1.102 1.102 0 0 1 1.486 1.034v22.069h16.92zm-3.252 2.207H47.853v-2.207h13.644V22.794L32.571 33.56v45.646L61.497 68.44V57.069H47.853v-2.207H77.37c-.714-1.243-1.126-2.902-1.126-4.69 0-1.787.412-3.447 1.126-4.69zm-57.369 0v-2.207h6.554v2.207H20zm0 11.586v-2.207h6.554v2.207H20zm60.621-2.207c1.034 0 2.176-2.019 2.176-4.69 0-2.67-1.142-4.69-2.176-4.69-1.033 0-2.175 2.02-2.175 4.69 0 2.671 1.142 4.69 2.175 4.69z"/></g></svg>